<svg xmlns="http://www.w3.org/2000/svg" width="172" height="32" fill="#002d80" xmlns:v="https://vecta.io/nano"><path d="M79.275 10.914c0-5.83-3.813-10.261-11.671-10.261H51.796v30.643h7.44V7.276h8.415c3.115 0 4.231 1.773 4.231 3.825 0 2.1-1.162 3.825-4.278 3.825h-7.208l10.23 16.37h8.462L72.16 20.288c4.325-1.026 7.114-4.058 7.114-9.375M39.335.653h7.44v30.644h-7.44zm-23.759 0L0 31.296h8.369l2.523-5.13h12.541l-3.115-6.437h-6.26l4.633-9.421h.094L29.2 31.296h8.555L22.178.653zm85.321 30.643H82.809V.653h17.39c2.61-.128 5.18.678 7.249 2.274a7.6 7.6 0 0 1 2.61 5.981 6.79 6.79 0 0 1-3.629 6.484 7.46 7.46 0 0 1 4.93 7.322 7.79 7.79 0 0 1-2.86 6.233 11.82 11.82 0 0 1-7.602 2.349zM90.248 18.61v6.25h10.136a3.12 3.12 0 0 0 3.209-3.172c.001-.84-.341-1.643-.947-2.224a3.08 3.08 0 0 0-2.262-.854zm0-11.474h0v5.409h9.9a2.64 2.64 0 0 0 1.928-.775c.51-.511.789-1.208.772-1.93a2.62 2.62 0 0 0-2.649-2.703H90.25zm44.591 10.634c0 4.651-2.139 7.229-6.37 7.229-4.184 0-6.323-2.578-6.323-7.229V.653h-7.625v16.558c0 9.468 4.975 14.742 13.948 14.742s13.995-5.27 13.995-14.739V.653h-7.625zm27.478-4.943c-7.062-1.725-8.6-1.89-8.6-3.918 0-1.569 1.767-2.332 4.742-2.332 3.952 0 8.161.995 10.555 2.472l2.37-6.249A28.01 28.01 0 0 0 158.551 0c-7.858 0-12.277 3.918-12.277 9.188 0 5.671 3.3 7.975 10.88 9.608 5.9 1.305 7.16 2.119 7.16 3.778 0 1.8-1.627 2.612-4.835 2.612-4.261.044-8.466-.983-12.227-2.986l-2.278 6.531a32.9 32.9 0 0 0 14.692 3.219c7.718 0 12.321-3.592 12.321-9.609 0-4.827-3.112-7.928-9.67-9.514"/></svg>