<svg xmlns="http://www.w3.org/2000/svg" width="148.48" height="31.95" viewBox="0 0 148.48 31.95">
  <defs>
    <style>
      .cls-1 {
        fill: #63cacb;
      }

      .cls-2 {
        fill: #e6e6e6;
      }
    </style>
  </defs>
  <g id="chmod777-dark" transform="translate(-126.76 -336.075)">
    <path id="Exclusion_1" data-name="Exclusion 1" class="cls-1" d="M144.48,31.95H6a5.006,5.006,0,0,1-5-5V5A5.006,5.006,0,0,1,6,0H144.48a5.006,5.006,0,0,1,5,5v21.95A5.006,5.006,0,0,1,144.48,31.95ZM102.87,2.458a3,3,0,0,0-3,3V26.492a3,3,0,0,0,3,3h41.143a3,3,0,0,0,3-3V5.458a3,3,0,0,0-3-3Z" transform="translate(125.76 336.075)"/>
    <path id="Path_4" data-name="Path 4" class="cls-2" d="M12.824,7.727c.613,0,.882-.27.882-.882V3.928c0-.613-.27-.882-.882-.882H7.9c-1.03,0-1.5-.368-1.5-1.177V-3.965c0-.833.466-1.226,1.5-1.226h4.927c.613,0,.882-.27.882-.882V-9.04c0-.613-.27-.882-.882-.882H6.842C2.724-9.922.812-8.329.812-4.9V2.727c0,3.407,1.912,5,6.03,5Zm8.335,0c.613,0,.882-.27.882-.882V1.4h4.094V6.845c0,.613.27.882.882.882h3.8c.613,0,.882-.27.882-.882V-9.04c0-.613-.27-.882-.882-.882h-3.8c-.613,0-.882.27-.882.882V-3.72H22.041V-9.04c0-.613-.27-.882-.882-.882h-3.8c-.613,0-.882.27-.882.882V6.845c0,.613.27.882.882.882Zm18.459,0c.613,0,.882-.27.882-.882V-1.784L41.946.888a1.287,1.287,0,0,0,1.3.784h.981a1.287,1.287,0,0,0,1.3-.784l1.446-2.672V6.845c0,.613.245.882.882.882h3.775c.613,0,.882-.27.882-.882V-9.04c0-.613-.27-.882-.882-.882H47.657a1.16,1.16,0,0,0-1.128.735l-2.182,4c-.172.294-.245.417-.441.417h-.221c-.2,0-.27-.123-.441-.417l-2.206-4a1.16,1.16,0,0,0-1.128-.735H35.965c-.613,0-.882.27-.882.882V6.845c0,.613.27.882.882.882Zm31.23-4.633V-5.265c0-2.991-1.471-5.025-7.6-5.025s-7.624,2.035-7.624,5.025V3.094c0,2.991,1.5,5,7.624,5S70.847,6.085,70.847,3.094Zm-9.658-.882V-4.382c0-.637.294-1.128,2.059-1.128,1.789,0,2.059.49,2.059,1.128V2.212c0,.662-.27,1.152-2.059,1.152C61.483,3.364,61.189,2.874,61.189,2.212ZM83.1,7.727c4.118,0,6.03-1.593,6.03-5V-4.922c0-3.407-1.912-5-6.03-5H74.843c-.613,0-.882.27-.882.882V6.845c0,.613.27.882.882.882ZM79.525-5.24h2.917c.784,0,1.152.368,1.152,1.177V1.893c0,.833-.368,1.2-1.152,1.2H79.525Z" transform="translate(131.119 353.147)"/>
    <path id="Path_5" data-name="Path 5" class="cls-1" d="M3.342,2.479,9.956-12.4H2v-1.724H12.037v1.589L5.276,3.07Zm14.779,0L24.735-12.4H16.779v-1.724H26.817v1.589L20.055,3.07Zm14.779,0L39.514-12.4H31.558v-1.724H41.6v1.589L34.834,3.07Z" transform="translate(228.086 358.172)"/>
  </g>
</svg>
